<svg version="1.1" xmlns="http://www.w3.org/2000/svg" xmlns:xlink="http://www.w3.org/1999/xlink" x="0px" y="0px" width="275" height="114" viewBox="0 0 609.4 167.2" enable-background="new 0 0 609.4 167.2" xml:space="preserve">
            <defs>
                <clippath id="logo__clip">
                    <path d="M28.7 100.4h-4.5L13 66.8h6.5l7 21 7.4-21h4.6l7.4 21 7-21h6.5l-11.1 33.6h-4.6l-7.5-21.3-7.5 21.3zM95.6 94.7v5.8H74.9V66.8h20.2v5.8H81.4v7h10.3v5.8H81.4v9.4h14.2zM142.9 93l-3.2 7.4H133l14.4-33.6h4.6l14.4 33.6h-6.8l-3.2-7.4h-13.5zm11-5.8l-4.3-9.9-4.3 9.9h8.6zM187.9 66.8v33.6h-6.5V66.8h6.5zM213.4 78.5v21.9h-6.5V66.8h4.5l18.7 21.9V66.8h6.5v33.6H232l-18.6-21.9zM265 66.8L259.2 81h-4.5l3.6-14.2h6.7zM289.7 100.4V72.6h-8.9v-5.8H305v5.8h-8.9v27.8h-6.4zM352 86.7v13.7h-6.5V66.8h12.6c7.8 0 11.4 4.4 11.4 10s-3.5 9.9-11.4 9.9H352zm0-14.1V81h5.9c3.8 0 5.2-2 5.2-4.2s-1.4-4.2-5.2-4.2H352zM406.2 94.7v5.8h-20.6V66.8h6.5v27.8h14.1zM430.8 93l-3.2 7.4h-6.8l14.4-33.6h4.6l14.4 33.6h-6.8l-3.2-7.4h-13.4zm11-5.8l-4.3-9.9-4.3 9.9h8.6zM470.2 91.5c2.2 2.5 4.9 3.7 7.9 3.7 2.9 0 4.9-1.8 4.9-4.2 0-2.6-2-3.9-6.2-5.5-2.1-.8-3.6-1.5-4.5-2-3.2-1.9-4.8-4.4-4.8-7.6 0-5.7 5.2-9.4 11.1-9.4 3.6 0 6.9 1.1 9.8 3.2l-3.4 4.8c-1.6-1.5-3.5-2.2-5.8-2.2-2.7 0-5.2 1.2-5.2 3.6 0 1.9 2.5 3.3 5.5 4.5s6.3 2.3 8.4 5.2c1.1 1.5 1.6 3.3 1.6 5.4 0 5.8-5.2 10.1-11.4 10.1-4.4 0-8.5-1.7-12.2-5l4.3-4.6zM511.3 100.4V72.6h-8.9v-5.8h24.2v5.8h-8.9v27.8h-6.4zM549.5 66.8v33.6H543V66.8h6.5zM571 95.9c-3.4-3.3-5-7.4-5-12.3 0-9.8 7.4-17.3 17.7-17.3 4.9 0 9 1.6 12.3 4.8l-4.2 4.4c-2.3-2.3-5-3.4-8.2-3.4-6.4 0-11.2 5.1-11.2 11.5 0 6.5 5 11.5 11.5 11.5 3.9 0 7.1-1.5 9.5-4.7l4.5 4c-3.1 3.9-8.1 6.4-14.1 6.4-5.1.1-9.4-1.6-12.8-4.9z"></path>
                </clippath>
            </defs>
            <g>
                <g class="logo__cross--bottom">
                    <path fill="#F3F3F3" d="M288.8,126.8l-15.6,33.6h-5.8l15.6-33.6H288.8z"></path>
                </g>
                <g class="logo__cross--top">
                    <path fill="#F3F3F3" d="M344,6.8l-15.6,33.6h-5.8l15.6-33.6H344z"></path>
                </g>
            </g>
            <g class="logo__mask" display="none">
                <g display="inline">
                    <path fill="#010101" d="M28.7,100.4h-4.5L13,66.8h6.5l7,21l7.4-21h4.6l7.4,21l7-21h6.5l-11.1,33.6h-4.6l-7.5-21.3L28.7,100.4z"></path>
                    <path fill="#010101" d="M95.6,94.7v5.8H74.9V66.8h20.2v5.8H81.4v7h10.3v5.8H81.4v9.4H95.6z"></path>
                    <path fill="#010101" d="M142.9,93l-3.2,7.4H133l14.4-33.6h4.6l14.4,33.6h-6.8l-3.2-7.4H142.9z M153.9,87.2l-4.3-9.9l-4.3,9.9
                    H153.9z"></path>
                    <path fill="#010101" d="M187.9,66.8v33.6h-6.5V66.8H187.9z"></path>
                    <path fill="#010101" d="M213.4,78.5v21.9h-6.5V66.8h4.5l18.7,21.9V66.8h6.5v33.6h-4.6L213.4,78.5z"></path>
                    <path fill="#010101" d="M265,66.8L259.2,81h-4.5l3.6-14.2H265z"></path>
                    <path fill="#010101" d="M289.7,100.4V72.6h-8.9v-5.8H305v5.8h-8.9v27.8H289.7z"></path>
                    <path fill="#010101" d="M352,86.7v13.7h-6.5V66.8h12.6c7.8,0,11.4,4.4,11.4,10c0,5.6-3.5,9.9-11.4,9.9H352z M352,72.6V81h5.9
                    c3.8,0,5.2-2,5.2-4.2c0-2.2-1.4-4.2-5.2-4.2H352z"></path>
                    <path fill="#010101" d="M406.2,94.7v5.8h-20.6V66.8h6.5v27.8H406.2z"></path>
                    <path fill="#010101" d="M430.8,93l-3.2,7.4h-6.8l14.4-33.6h4.6l14.4,33.6h-6.8l-3.2-7.4H430.8z M441.8,87.2l-4.3-9.9l-4.3,9.9
                    H441.8z"></path>
                    <path fill="#010101" d="M470.2,91.5c2.2,2.5,4.9,3.7,7.9,3.7c2.9,0,4.9-1.8,4.9-4.2c0-2.6-2-3.9-6.2-5.5c-2.1-0.8-3.6-1.5-4.5-2
                    c-3.2-1.9-4.8-4.4-4.8-7.6c0-5.7,5.2-9.4,11.1-9.4c3.6,0,6.9,1.1,9.8,3.2l-3.4,4.8c-1.6-1.5-3.5-2.2-5.8-2.2
                    c-2.7,0-5.2,1.2-5.2,3.6c0,1.9,2.5,3.3,5.5,4.5s6.3,2.3,8.4,5.2c1.1,1.5,1.6,3.3,1.6,5.4c0,5.8-5.2,10.1-11.4,10.1
                    c-4.4,0-8.5-1.7-12.2-5L470.2,91.5z"></path>
                    <path fill="#010101" d="M511.3,100.4V72.6h-8.9v-5.8h24.2v5.8h-8.9v27.8H511.3z"></path>
                    <path fill="#010101" d="M549.5,66.8v33.6H543V66.8H549.5z"></path>
                    <path fill="#010101" d="M571,95.9c-3.4-3.3-5-7.4-5-12.3c0-9.8,7.4-17.3,17.7-17.3c4.9,0,9,1.6,12.3,4.8l-4.2,4.4
                    c-2.3-2.3-5-3.4-8.2-3.4c-6.4,0-11.2,5.1-11.2,11.5c0,6.5,5,11.5,11.5,11.5c3.9,0,7.1-1.5,9.5-4.7l4.5,4
                    c-3.1,3.9-8.1,6.4-14.1,6.4C578.7,100.9,574.4,99.2,571,95.9z"></path>
                </g>
                <g display="inline">
                    <g>
                        <g>
                            <path fill="#010101" d="M288.8,126.8l-15.6,33.6h-5.8l15.6-33.6H288.8z"></path>
                        </g>
                    </g>
                    <g>
                        <g>
                            <path fill="#010101" d="M344,6.8l-15.6,33.6h-5.8l15.6-33.6H344z"></path>
                        </g>
                    </g>
                </g>
            </g>
            <g class="logo__original" display="none">
                <text transform="matrix(1 0 0 1 12.5417 100.4267)" display="inline"><tspan x="0" y="0" fill="#010101" font-family="&#39;Brown-Bold&#39;" font-size="48" letter-spacing="11">WE AIN</tspan><tspan x="239.2" y="0" fill="#010101" font-family="&#39;Brown-Bold&#39;" font-size="48" letter-spacing="12">’</tspan><tspan x="267" y="0" fill="#010101" font-family="&#39;Brown-Bold&#39;" font-size="48" letter-spacing="11">T P</tspan><tspan x="369.2" y="0" fill="#010101" font-family="&#39;Brown-Bold&#39;" font-size="48" letter-spacing="13">L</tspan><tspan x="408.3" y="0" fill="#010101" font-family="&#39;Brown-Bold&#39;" font-size="48" letter-spacing="11">A</tspan><tspan x="453" y="0" fill="#010101" font-family="&#39;Brown-Bold&#39;" font-size="48" letter-spacing="10">S</tspan><tspan x="488.7" y="0" fill="#010101" font-family="&#39;Brown-Bold&#39;" font-size="48" letter-spacing="11">TI</tspan><tspan x="552" y="0" fill="#010101" font-family="&#39;Brown-Bold&#39;" font-size="48">C</tspan></text>
                <g display="inline">
                    <g>
                        <path fill="#010101" d="M288.8,126.8l-15.6,33.6h-5.8l15.6-33.6H288.8z"></path>
                    </g>
                    <g>
                        <path fill="#010101" d="M344,6.8l-15.6,33.6h-5.8l15.6-33.6H344z"></path>
                    </g>
                </g>
            </g>
        </svg>