<?xml version="1.0" encoding="utf-8"?>
<!-- Generator: Adobe Illustrator 14.0.0, SVG Export Plug-In . SVG Version: 6.00 Build 43363)  -->
<!DOCTYPE svg PUBLIC "-//W3C//DTD SVG 1.1//EN" "http://www.w3.org/Graphics/SVG/1.1/DTD/svg11.dtd">
<svg version="1.1" id="Ebene_1" xmlns:sketch="http://www.bohemiancoding.com/sketch/ns"
	 xmlns="http://www.w3.org/2000/svg" xmlns:xlink="http://www.w3.org/1999/xlink" x="0px" y="0px" width="360px" height="45px"
	 viewBox="0 0 360 45" enable-background="new 0 0 360 45" xml:space="preserve">
<title>logo</title>
<desc>Created with Sketch.</desc>
<g>
	<path d="M95.559,33.898l-3.402,8.643h-7.085l15.306-38.902h4.817L120.5,42.541h-7.084l-3.403-8.643H95.559z M107.18,27.415
		l-4.536-11.424L98.11,27.415H107.18z"/>
	<path d="M69.324,3.432v38.901h-5.79V3.432H69.324z"/>
	<path d="M142.805,17.014v25.319h-6.947V3.432h4.921l20.26,25.316V3.432h6.946v38.901h-4.919L142.805,17.014z"/>
	<path d="M195.516,42.333V10.222h-11.863v-6.79h32.707v6.791h-11.861v32.111L195.516,42.333L195.516,42.333z"/>
	<path d="M236.83,33.689l-3.074,8.644h-6.4l13.832-38.901h4.354l13.833,38.901h-6.402l-3.072-8.644H236.83z M247.335,27.206
		l-4.101-11.424l-4.098,11.424H247.335z"/>
	<path d="M281.621,17.014v25.319h-6.946V3.432h4.919l20.26,25.316V3.432h6.945v38.901h-4.919L281.621,17.014z"/>
</g>
<g>
	<g id="XMLID_2_">
		<g>
			<path fill="#1D1D1F" d="M357.553,18.243v17.264c-3.587,4.505-9.379,7.41-16.314,7.41c-6.032,0-10.893-1.972-14.821-5.795
				c-3.942-3.823-5.794-8.563-5.794-14.241c0-11.352,8.566-20.038,20.496-20.038c5.676,0,10.42,1.853,14.242,5.558l-3.143,2.017
				c-3.097-2.698-6.803-4.09-11.101-4.09c-9.617,0-16.673,7.291-16.673,16.672c0,4.622,1.615,8.686,4.744,11.811
				c3.123,3.127,7.291,4.86,12.151,4.86c4.207,0,7.957-1.346,10.819-3.646c0.636-0.489,1.214-0.993,1.688-1.572V21.604h-0.505
				l-0.133-3.364L357.553,18.243L357.553,18.243L357.553,18.243z"/>
			<polygon points="353.85,21.607 353.85,34.457 353.344,21.607 			"/>
			<path d="M353.344,21.607l0.506,12.85c-0.52,0.564-1.08,1.079-1.688,1.57c-0.12,0.091-0.253,0.18-0.388,0.281l-2.164-2.713
				c0.147-0.088,0.281-0.189,0.416-0.296v-8.327h-7.264l-1.244-1.558l1.644-1.807L353.344,21.607L353.344,21.607z"/>
			<polygon fill="#1D1D1F" points="353.214,18.243 353.344,21.607 343.165,21.607 346.264,18.243 			"/>
			<path fill="#F9F9F9" d="M352.93,11.07l0.281,7.173h-6.947l4.235-4.624c-0.442-0.444-0.89-0.844-1.362-1.2l3.082-2.001
				C352.458,10.624,352.691,10.847,352.93,11.07z"/>
			<path d="M352.161,36.025c0.606-0.487,1.173-1.008,1.688-1.572C353.376,35.032,352.797,35.538,352.161,36.025z"/>
			<path d="M352.223,10.417l-3.084,2.001c-2.354-1.853-5.039-2.742-8.137-2.742c-7.409,0-12.967,5.912-12.967,13.322
				c0,7.527,5.795,13.307,13.308,13.307c3.067,0,5.837-0.931,8.271-2.711l2.164,2.711c0.132-0.104,0.265-0.189,0.385-0.279
				c-2.857,2.299-6.607,3.646-10.818,3.646c-4.861,0-9.027-1.733-12.152-4.858c-3.127-3.125-4.741-7.189-4.741-11.813
				c0-9.379,7.056-16.672,16.673-16.672C345.418,6.328,349.123,7.721,352.223,10.417z"/>
			<path fill="#F9F9F9" d="M350.499,13.617l-4.235,4.625h-6.182l9.055-5.825C349.611,12.774,350.057,13.175,350.499,13.617z"/>
			<path fill="#F9F9F9" d="M350.025,24.971v8.328c-0.135,0.104-0.269,0.209-0.414,0.297l-6.848-8.625H350.025L350.025,24.971z"/>
			<path fill="#F9F9F9" d="M342.766,24.971l6.848,8.625c-2.434,1.779-5.202,2.711-8.27,2.711c-7.514,0-13.309-5.777-13.309-13.307
				c0-7.41,5.559-13.323,12.967-13.323c3.098,0,5.781,0.889,8.135,2.742l-9.055,5.824h6.182l-3.099,3.364h-3.083l1.438,1.808
				l-1.438,1.558h2.684V24.971L342.766,24.971z"/>
			<polygon fill="#FFFFFF" points="343.165,21.607 341.52,23.413 340.082,21.607 			"/>
			<polygon points="342.766,24.971 340.082,24.971 341.52,23.413 			"/>
		</g>
	</g>
</g>
<g>
	<g id="XMLID_1_">
		<g>
			<polygon fill="#1D1D1F" points="46.593,3.432 46.593,42.333 42.77,42.333 42.77,7.374 27.328,33.204 27.033,33.382 11.396,7.374 
				11.396,42.333 7.691,42.333 7.691,3.432 12.894,3.432 27.135,26.714 41.274,3.432 			"/>
			<polygon points="42.77,7.374 42.77,42.333 39.065,40.242 39.065,20.683 30.143,35.234 27.135,33.545 27.372,33.189 
				27.328,33.204 			"/>
			<polygon points="42.77,42.333 39.065,42.333 39.065,40.242 			"/>
			<polygon fill="#F9F9F9" points="39.065,40.242 39.065,42.333 15.218,42.333 15.218,40.139 23.978,35.134 24.48,35.977 
				29.686,35.977 30.143,35.234 			"/>
			<polygon fill="#F9F9F9" points="39.065,20.683 39.065,40.242 30.143,35.234 			"/>
			<polygon points="30.143,35.234 29.686,35.977 24.48,35.977 23.978,35.134 27.033,33.382 27.135,33.545 			"/>
			<polygon points="27.372,33.189 27.135,33.545 27.328,33.204 			"/>
			<polygon points="27.033,33.382 27.328,33.204 27.135,33.545 			"/>
			<polygon points="11.396,7.374 27.033,33.382 23.978,35.134 15.218,20.683 15.218,40.139 11.396,42.333 			"/>
			<polygon fill="#F9F9F9" points="23.978,35.134 15.218,40.139 15.218,20.683 			"/>
			<polygon points="15.218,40.139 15.218,42.333 11.396,42.333 			"/>
		</g>
	</g>
</g>
</svg>
