<?xml version="1.0" encoding="utf-8"?>
<!-- Generator: Adobe Illustrator 14.0.0, SVG Export Plug-In . SVG Version: 6.00 Build 43363)  -->
<!DOCTYPE svg PUBLIC "-//W3C//DTD SVG 1.1//EN" "http://www.w3.org/Graphics/SVG/1.1/DTD/svg11.dtd">
<svg version="1.1" id="Ebene_1" xmlns="http://www.w3.org/2000/svg" xmlns:xlink="http://www.w3.org/1999/xlink" x="0px" y="0px"
	 width="40px" height="40px" viewBox="0 0 40 40" enable-background="new 0 0 40 40" xml:space="preserve">
<circle display="none" fill="#1D1D1F" cx="20" cy="20" r="20"/>
<g id="codepen" display="none">
	<polygon display="inline" fill="#1D1D1F" points="9.8,18.2 9.8,21.8 12.4,20 	"/>
	<polygon display="inline" fill="#1D1D1F" points="18.9,15.6 18.9,10.7 10.6,16.2 14.3,18.7 	"/>
	<polygon display="inline" fill="#1D1D1F" points="29.4,16.2 21.1,10.7 21.1,15.6 25.7,18.7 	"/>
	<polygon display="inline" fill="#1D1D1F" points="10.6,23.8 18.9,29.3 18.9,24.4 14.3,21.3 	"/>
	<polygon display="inline" fill="#1D1D1F" points="21.1,24.4 21.1,29.3 29.4,23.8 25.7,21.3 	"/>
	<polygon display="inline" fill="#1D1D1F" points="20,17.5 16.2,20 20,22.5 23.8,20 	"/>
	<path display="inline" fill="#1D1D1F" d="M20,0C9,0,0,9,0,20s9,20,20,20s20-9,20-20S31,0,20,0z M32.4,23.8V23.9l0,0V24
		c0,0,0,0,0,0.1V24.2c0,0,0,0,0,0.1c0,0,0,0,0,0.101l0,0c0,0,0,0,0,0.1l0,0c0,0,0,0-0.101,0.1l0,0c0,0,0,0-0.1,0.101l0,0l0,0
		l-11.3,7.5c-0.2,0.1-0.4,0.2-0.601,0.2c-0.2,0-0.4-0.101-0.6-0.2L8.1,24.7l0,0l0,0c0,0,0,0-0.1-0.101l0,0c0,0,0,0-0.1-0.1l0,0
		c0,0,0,0,0-0.1l0,0c0,0,0,0,0-0.101c0,0,0,0,0-0.1V24.1c0,0,0,0,0-0.1v-0.1l0,0V23.8v-7.5v-0.1l0,0v-0.1c0,0,0,0,0-0.1v-0.1
		c0,0,0,0,0-0.1c0,0,0,0,0-0.1l0,0c0,0,0,0,0-0.1l0,0c0,0,0,0,0.1-0.1l0,0c0,0,0,0,0.1-0.1l0,0l0,0l11.3-7.5c0.4-0.2,0.8-0.2,1.2,0
		L31.9,15.4l0,0l0,0c0,0,0,0,0.1,0.1l0,0c0,0,0,0,0.1,0.1l0,0c0,0,0,0,0,0.1l0,0c0,0,0,0,0,0.1c0,0,0,0,0,0.1V16c0,0,0,0,0,0.1v0.1
		l0,0v0.1v7.5H32.4z"/>
	<polygon display="inline" fill="#1D1D1F" points="30.2,21.8 30.2,18.2 27.6,20 	"/>
</g>
<path id="linkedin" display="none" fill="#1D1D1F" d="M20,0C9,0,0,9,0,20s9,20,20,20s20-9,20-20S31,0,20,0z M15,29h-4V16h4V29z
	 M13,14.8V15h-0.2c-1.4,0-2.3-1.1-2.3-2.3c0-1.2,0.9-2.2,2.3-2.2c1.4,0,2.4,1,2.4,2.2C15.2,13.8,14,14.8,13,14.8z M30,29h-4v-6.8
	c0-1.7-0.8-2.8-2.3-2.8c-1.101,0-2.101,0.8-2.4,1.5c-0.1,0.3-0.399,0.6-0.399,1V29h-3.8c0,0,0.1-11,0-13H21v2.2c1-0.9,1.8-2.1,4-2.1
	c2.7,0,5,1.8,5,5.6V29z"/>
<path id="twitter" fill="#1D1D1F" d="M20,0C9,0,0,9,0,20s9,20,20,20s20-9,20-20S31,0,20,0z M16.547,26.063
	c0.219-0.354,0.276-0.714,0.172-1.078c-0.104-0.365-0.338-0.625-0.703-0.781c-0.354-0.146-0.734-0.151-1.141-0.016
	c-0.407,0.135-0.719,0.375-0.938,0.719c-0.229,0.354-0.297,0.711-0.203,1.07c0.094,0.359,0.318,0.621,0.672,0.789
	c0.354,0.166,0.742,0.18,1.164,0.039C15.992,26.664,16.318,26.416,16.547,26.063z M18.016,24.172
	c0.083-0.135,0.102-0.273,0.055-0.414c-0.046-0.141-0.138-0.236-0.273-0.289c-0.146-0.052-0.294-0.049-0.445,0.008
	c-0.151,0.058-0.263,0.154-0.336,0.289c-0.177,0.323-0.11,0.557,0.203,0.703c0.146,0.053,0.297,0.05,0.453-0.008
	C17.829,24.404,17.944,24.307,18.016,24.172L18.016,24.172z M20.734,25.844c-0.469,1.063-1.292,1.844-2.469,2.344
	s-2.344,0.563-3.5,0.188c-1.115-0.354-1.883-1.014-2.305-1.977c-0.422-0.965-0.388-1.941,0.102-2.931
	c0.489-0.968,1.278-1.692,2.367-2.172c1.088-0.479,2.185-0.578,3.289-0.297c1.156,0.302,1.981,0.925,2.478,1.867
	C21.19,23.809,21.203,24.801,20.734,25.844L20.734,25.844z M25.609,23.344c-0.094-1-0.559-1.885-1.392-2.656
	c-0.833-0.77-1.919-1.338-3.258-1.703c-1.339-0.364-2.768-0.473-4.289-0.327c-2.323,0.239-4.247,0.976-5.773,2.211
	c-1.526,1.234-2.216,2.612-2.07,4.133c0.094,1,0.558,1.886,1.391,2.656c0.833,0.771,1.919,1.338,3.258,1.702
	c1.339,0.365,2.768,0.475,4.289,0.328c2.323-0.238,4.248-0.977,5.773-2.211S25.755,24.865,25.609,23.344z M30.422,23.406
	c0,0.707-0.192,1.435-0.578,2.18c-0.385,0.746-0.953,1.459-1.703,2.141c-0.75,0.683-1.627,1.295-2.633,1.836
	c-1.006,0.543-2.182,0.975-3.531,1.297c-1.348,0.323-2.757,0.484-4.227,0.484s-2.902-0.174-4.297-0.523
	c-1.396-0.348-2.648-0.832-3.758-1.452c-1.11-0.62-2.003-1.407-2.68-2.359S6,25.018,5.999,23.893c0-1.199,0.362-2.475,1.086-3.828
	c0.724-1.354,1.753-2.698,3.086-4.031c1.761-1.761,3.54-2.99,5.336-3.687c1.797-0.697,3.081-0.661,3.852,0.109
	c0.677,0.667,0.782,1.755,0.313,3.266c-0.042,0.146-0.047,0.25-0.016,0.313c0.031,0.063,0.083,0.099,0.156,0.108
	c0.072,0.01,0.148,0.008,0.227-0.008s0.148-0.033,0.211-0.055l0.094-0.031c1.448-0.615,2.729-0.922,3.844-0.922
	c1.115,0,1.912,0.318,2.392,0.953c0.469,0.656,0.469,1.583,0,2.781c-0.021,0.135-0.044,0.239-0.07,0.313
	c-0.026,0.074-0.003,0.139,0.07,0.195s0.135,0.096,0.187,0.117c0.053,0.021,0.141,0.053,0.267,0.094
	c0.594,0.188,1.13,0.432,1.608,0.734c0.479,0.302,0.896,0.727,1.25,1.272C30.246,22.134,30.423,22.74,30.422,23.406L30.422,23.406z
	 M29.266,13.656c0.438,0.49,0.722,1.055,0.853,1.695c0.13,0.641,0.097,1.252-0.103,1.836c-0.083,0.238-0.236,0.416-0.461,0.53
	c-0.224,0.114-0.455,0.136-0.695,0.063c-0.238-0.084-0.416-0.237-0.53-0.461c-0.114-0.225-0.136-0.456-0.063-0.695
	c0.209-0.656,0.084-1.234-0.375-1.734s-1.016-0.683-1.672-0.547c-0.25,0.052-0.484,0.01-0.703-0.125
	c-0.219-0.136-0.349-0.328-0.391-0.578c-0.053-0.25-0.01-0.482,0.125-0.695c0.135-0.213,0.328-0.346,0.578-0.398
	c0.625-0.135,1.244-0.106,1.859,0.086c0.613,0.193,1.14,0.534,1.578,1.023V13.656z M32.094,11.109c0.906,1,1.492,2.159,1.758,3.477
	c0.267,1.318,0.196,2.576-0.211,3.773c-0.094,0.281-0.271,0.489-0.531,0.625c-0.26,0.135-0.53,0.156-0.812,0.063
	s-0.489-0.27-0.625-0.531c-0.136-0.26-0.161-0.531-0.077-0.812c0.291-0.854,0.344-1.75,0.155-2.688s-0.604-1.761-1.25-2.469
	c-0.646-0.719-1.417-1.216-2.312-1.492c-0.896-0.276-1.797-0.32-2.703-0.133c-0.293,0.063-0.563,0.014-0.813-0.148
	c-0.249-0.161-0.405-0.388-0.469-0.68s-0.014-0.561,0.148-0.805s0.389-0.398,0.68-0.461c1.281-0.271,2.553-0.211,3.813,0.18
	c1.261,0.391,2.344,1.091,3.25,2.102L32.094,11.109z"/>
</svg>
