<?xml version="1.0" encoding="utf-8"?>
<!-- Generator: Adobe Illustrator 14.0.0, SVG Export Plug-In . SVG Version: 6.00 Build 43363)  -->
<!DOCTYPE svg PUBLIC "-//W3C//DTD SVG 1.1//EN" "http://www.w3.org/Graphics/SVG/1.1/DTD/svg11.dtd">
<svg version="1.1" id="Ebene_1" xmlns="http://www.w3.org/2000/svg" xmlns:xlink="http://www.w3.org/1999/xlink" x="0px" y="0px"
	 width="40px" height="40px" viewBox="0 0 40 40" enable-background="new 0 0 40 40" xml:space="preserve">
<circle display="none" fill="#1D1D1F" cx="20" cy="20" r="20"/>
<g id="codepen" display="none">
	<polygon display="inline" fill="#1D1D1F" points="9.8,18.2 9.8,21.8 12.4,20 	"/>
	<polygon display="inline" fill="#1D1D1F" points="18.9,15.6 18.9,10.7 10.6,16.2 14.3,18.7 	"/>
	<polygon display="inline" fill="#1D1D1F" points="29.4,16.2 21.1,10.7 21.1,15.6 25.7,18.7 	"/>
	<polygon display="inline" fill="#1D1D1F" points="10.6,23.8 18.9,29.3 18.9,24.4 14.3,21.3 	"/>
	<polygon display="inline" fill="#1D1D1F" points="21.1,24.4 21.1,29.3 29.4,23.8 25.7,21.3 	"/>
	<polygon display="inline" fill="#1D1D1F" points="20,17.5 16.2,20 20,22.5 23.8,20 	"/>
	<path display="inline" fill="#1D1D1F" d="M20,0C9,0,0,9,0,20s9,20,20,20s20-9,20-20S31,0,20,0z M32.4,23.8V23.9l0,0V24
		c0,0,0,0,0,0.1V24.2c0,0,0,0,0,0.1c0,0,0,0,0,0.101l0,0c0,0,0,0,0,0.101l0,0c0,0,0,0-0.102,0.101l0,0c0,0,0,0-0.1,0.101l0,0l0,0
		l-11.301,7.5c-0.199,0.101-0.399,0.2-0.601,0.2c-0.2,0-0.4-0.102-0.6-0.2L8.1,24.7l0,0l0,0c0,0,0,0-0.1-0.101l0,0
		c0,0,0,0-0.1-0.101l0,0c0,0,0,0,0-0.101l0,0c0,0,0,0,0-0.101c0,0,0,0,0-0.101V24.1c0,0,0,0,0-0.1v-0.1l0,0V23.8v-7.5v-0.1l0,0v-0.1
		c0,0,0,0,0-0.1v-0.1c0,0,0,0,0-0.1c0,0,0,0,0-0.1l0,0c0,0,0,0,0-0.1l0,0c0,0,0,0,0.1-0.1l0,0c0,0,0,0,0.1-0.1l0,0l0,0l11.3-7.5
		c0.4-0.2,0.8-0.2,1.2,0L31.9,15.4l0,0l0,0c0,0,0,0,0.1,0.1l0,0c0,0,0,0,0.1,0.1l0,0c0,0,0,0,0,0.1l0,0c0,0,0,0,0,0.1c0,0,0,0,0,0.1
		V16c0,0,0,0,0,0.1v0.1l0,0v0.1v7.5H32.4z"/>
	<polygon display="inline" fill="#1D1D1F" points="30.2,21.8 30.2,18.2 27.6,20 	"/>
</g>
<path id="linkedin" display="none" fill="#1D1D1F" d="M20,0C9,0,0,9,0,20s9,20,20,20s20-9,20-20S31,0,20,0z M15,29h-4V16h4V29z
	 M13,14.8V15h-0.2c-1.4,0-2.3-1.1-2.3-2.3c0-1.2,0.9-2.2,2.3-2.2c1.4,0,2.4,1,2.4,2.2C15.2,13.8,14,14.8,13,14.8z M30,29h-4v-6.8
	c0-1.7-0.8-2.8-2.3-2.8c-1.101,0-2.101,0.8-2.4,1.5c-0.1,0.3-0.399,0.6-0.399,1V29h-3.799c0,0,0.1-11,0-13H21v2.2
	c1-0.9,1.8-2.1,4-2.1c2.7,0,5,1.8,5,5.6V29z"/>
<path id="twitter" display="none" fill="#1D1D1F" d="M20,0C9,0,0,9,0,20s9,20,20,20s20-9,20-20S31,0,20,0z M29.7,15.2
	c0,0.2,0,0.4,0,0.6c0,6-4.5,12.8-12.8,12.8c-2.5,0-4.9-0.699-6.9-2c0.4,0,0.7,0.102,1.1,0.102c2.1,0,4.1-0.7,5.6-1.9
	c-2,0-3.6-1.3-4.2-3.1c0.3,0.1,0.6,0.1,0.8,0.1c0.4,0,0.9-0.1,1.3-0.199c-2.1-0.399-3.5-2.201-3.5-4.399c0,0,0,0,0-0.1
	c0,0.3,1.2,0.5,2,0.6c-1.2-0.8-2.1-2.2-2.1-3.8c0-0.8,0.2-1.6,0.6-2.3c2.2,2.7,5.5,4.5,9.3,4.7C20.8,16,20.8,15.6,20.8,15.3
	c0-2.5,2-4.5,4.5-4.5c1.3,0,2.5,0.5,3.3,1.4c1-0.2,2-0.6,2.9-1.1c-0.3,1.1-1,1.9-2,2.5c0.9-0.1,1.8-0.3,2.6-0.7l0,0l0,0l0,0
	C31.3,13.8,30.5,14.6,29.7,15.2z"/>
<path id="facebook" display="none" fill="#1D1D1F" d="M20,0C9,0,0,9,0,20s9,20,20,20s20-9,20-20S31,0,20,0z M26,12h-2.1
	C22.1,12,22,13,22,14.2V17h4l-0.5,4H22v11h-5V21h-3v-4h3v-3.2c0-3.6,2.4-5.6,5.6-5.6c1.5,0,3.4,0.1,3.4,0.2V12z"/>
<path display="none" fill="#1D1D1F" d="M20,0C9,0,0,9,0,20s9,20,20,20s20-9,20-20S31,0,20,0z M31,14h-1.2c-0.3,0-0.8,0.5-0.8,0.8
	v10.4c0,0.3,0.5,0.7,0.8,0.7H31v2h-8v-2h2V15h-0.5l-3.7,13h-2.9l-3.7-13H14v11h2v2H9v-2h1.2c0.3,0,0.8-0.5,0.8-0.7V14.8
	c0-0.3-0.5-0.8-0.8-0.8H9v-2h8.3l2.6,9H20l2.6-9H31V14z"/>
<g id="XMLID_1_">
	<g>
		<path fill="#1D1D1F" d="M32.5,32.58l1.62,1.54C30.5,37.75,25.5,40,20,40c-5.84,0-11.12-2.54-14.78-6.57l2.85-0.85H32.5z"/>
		<polygon fill="#FFFFFF" points="31.88,7.62 31.88,10.47 30.391,10.47 8.76,10.47 8.76,7.62 		"/>
		<path fill="#1D1D1F" d="M31.88,10.47V7.62l2.24-1.74C37.75,9.5,40,14.5,40,20s-2.25,10.5-5.88,14.12l-1.62-1.54v-2.79h-6.721
			l2.439-5.31h2.17V12.84v-2.37H31.88z"/>
		<rect x="13.6" y="15.7" fill="#1D1D1F" width="13.27" height="6.01"/>
		<polygon fill="#1D1D1F" points="25.25,24.48 22.8,29.79 17.67,29.79 15.28,24.48 		"/>
		<path fill="#FFFFFF" d="M13.6,21.71h13.27V15.7H13.6V21.71z M22.8,29.79l2.45-5.31h-9.97l2.39,5.31H22.8z M10.23,12.84h20.161
			V24.48h-2.17l-2.439,5.31h6.72v2.79H8.07v-2.79h6.56l-2.42-5.31h-1.98V12.84z"/>
		<path fill="#1D1D1F" d="M10.23,12.84V24.48h1.98l2.42,5.31H8.07v2.79l-2.85,0.85C1.98,29.87,0,25.16,0,20C0,9,9,0,20,0
			c5.5,0,10.5,2.25,14.12,5.88l-2.24,1.74H8.76v2.85h21.631v2.37H10.23z"/>
	</g>
</g>
</svg>
