<?xml version="1.0" encoding="utf-8"?>
<!-- Generator: Adobe Illustrator 14.0.0, SVG Export Plug-In . SVG Version: 6.00 Build 43363)  -->
<!DOCTYPE svg PUBLIC "-//W3C//DTD SVG 1.1//EN" "http://www.w3.org/Graphics/SVG/1.1/DTD/svg11.dtd">
<svg version="1.1" id="Ebene_1" xmlns="http://www.w3.org/2000/svg" xmlns:xlink="http://www.w3.org/1999/xlink" x="0px" y="0px"
	 width="40px" height="40px" viewBox="0 0 40 40" enable-background="new 0 0 40 40" xml:space="preserve">
<circle display="none" fill="#1D1D1F" cx="20" cy="20" r="20"/>
<g id="codepen" display="none">
	<polygon display="inline" fill="#1D1D1F" points="9.8,18.2 9.8,21.8 12.4,20 	"/>
	<polygon display="inline" fill="#1D1D1F" points="18.9,15.6 18.9,10.7 10.6,16.2 14.3,18.7 	"/>
	<polygon display="inline" fill="#1D1D1F" points="29.4,16.2 21.1,10.7 21.1,15.6 25.7,18.7 	"/>
	<polygon display="inline" fill="#1D1D1F" points="10.6,23.8 18.9,29.3 18.9,24.4 14.3,21.3 	"/>
	<polygon display="inline" fill="#1D1D1F" points="21.1,24.4 21.1,29.3 29.4,23.8 25.7,21.3 	"/>
	<polygon display="inline" fill="#1D1D1F" points="20,17.5 16.2,20 20,22.5 23.8,20 	"/>
	<path display="inline" fill="#1D1D1F" d="M20,0C9,0,0,9,0,20s9,20,20,20s20-9,20-20S31,0,20,0z M32.4,23.8V23.9l0,0V24
		c0,0,0,0,0,0.1V24.2c0,0,0,0,0,0.1c0,0,0,0,0,0.101l0,0c0,0,0,0,0,0.1l0,0c0,0,0,0-0.101,0.1l0,0c0,0,0,0-0.1,0.101l0,0l0,0
		l-11.3,7.5c-0.2,0.1-0.4,0.2-0.601,0.2c-0.2,0-0.4-0.101-0.6-0.2L8.1,24.7l0,0l0,0c0,0,0,0-0.1-0.101l0,0c0,0,0,0-0.1-0.1l0,0
		c0,0,0,0,0-0.1l0,0c0,0,0,0,0-0.101c0,0,0,0,0-0.1V24.1c0,0,0,0,0-0.1v-0.1l0,0V23.8v-7.5v-0.1l0,0v-0.1c0,0,0,0,0-0.1v-0.1
		c0,0,0,0,0-0.1c0,0,0,0,0-0.1l0,0c0,0,0,0,0-0.1l0,0c0,0,0,0,0.1-0.1l0,0c0,0,0,0,0.1-0.1l0,0l0,0l11.3-7.5c0.4-0.2,0.8-0.2,1.2,0
		L31.9,15.4l0,0l0,0c0,0,0,0,0.1,0.1l0,0c0,0,0,0,0.1,0.1l0,0c0,0,0,0,0,0.1l0,0c0,0,0,0,0,0.1c0,0,0,0,0,0.1V16c0,0,0,0,0,0.1v0.1
		l0,0v0.1v7.5H32.4z"/>
	<polygon display="inline" fill="#1D1D1F" points="30.2,21.8 30.2,18.2 27.6,20 	"/>
</g>
<path id="linkedin" display="none" fill="#1D1D1F" d="M20,0C9,0,0,9,0,20s9,20,20,20s20-9,20-20S31,0,20,0z M15,29h-4V16h4V29z
	 M13,14.8V15h-0.2c-1.4,0-2.3-1.1-2.3-2.3c0-1.2,0.9-2.2,2.3-2.2c1.4,0,2.4,1,2.4,2.2C15.2,13.8,14,14.8,13,14.8z M30,29h-4v-6.8
	c0-1.7-0.8-2.8-2.3-2.8c-1.101,0-2.101,0.8-2.4,1.5c-0.1,0.3-0.399,0.6-0.399,1V29h-3.8c0,0,0.1-11,0-13H21v2.2c1-0.9,1.8-2.1,4-2.1
	c2.7,0,5,1.8,5,5.6V29z"/>
<path id="twitter" display="none" fill="#1D1D1F" d="M20,0C9,0,0,9,0,20s9,20,20,20s20-9,20-20S31,0,20,0z M29.7,15.2
	c0,0.2,0,0.4,0,0.6c0,6-4.5,12.8-12.8,12.8c-2.5,0-4.9-0.699-6.9-2c0.4,0,0.7,0.101,1.1,0.101c2.1,0,4.1-0.7,5.6-1.9
	c-2,0-3.6-1.3-4.2-3.1c0.3,0.1,0.6,0.1,0.8,0.1c0.4,0,0.9-0.1,1.3-0.2c-2.1-0.399-3.5-2.2-3.5-4.399c0,0,0,0,0-0.1
	c0,0.3,1.2,0.5,2,0.6c-1.2-0.8-2.1-2.2-2.1-3.8c0-0.8,0.2-1.6,0.6-2.3c2.2,2.7,5.5,4.5,9.3,4.7C20.8,16,20.8,15.6,20.8,15.3
	c0-2.5,2-4.5,4.5-4.5c1.3,0,2.5,0.5,3.3,1.4c1-0.2,2-0.6,2.9-1.1c-0.3,1.1-1,1.9-2,2.5c0.9-0.1,1.8-0.3,2.6-0.7l0,0l0,0l0,0
	C31.3,13.8,30.5,14.6,29.7,15.2z"/>
<path id="facebook" display="none" fill="#1D1D1F" d="M20,0C9,0,0,9,0,20s9,20,20,20s20-9,20-20S31,0,20,0z M26,12h-2.1
	C22.1,12,22,13,22,14.2V17h4l-0.5,4H22v11h-5V21h-3v-4h3v-3.2c0-3.6,2.4-5.6,5.6-5.6c1.5,0,3.4,0.1,3.4,0.2V12z"/>
<path fill="#1D1D1F" d="M20,0C9,0,0,9,0,20s9,20,20,20s20-9,20-20S31,0,20,0z"/>
<g id="XMLID_1_">
	<g>
		<path fill="#FFFFFF" d="M29.787,26.7V13.09h-6.006V26.7l0.985,0.01l0.38,1.44l2.331-1.45H29.787z M31.84,11.2v17.39h-2.053
			c0,0-1.51,0-2.033,0c-0.513,0-3.479,2.101-3.479,2.101l-0.616-2.101h-1.93V11.2H31.84z"/>
		<path fill="#FFFFFF" d="M19.398,11.5c0.873-0.02,0.708,1.79,0.708,1.79h-4.209c0,1.74-0.041,3.7-0.185,5.87h4.312
			c0.616,0,0.626,1.89,0.626,1.89h-5.082c-0.072,1.04-0.287,2.13-0.646,3.25l1.19-0.95c0.719,0.7,2.423,2.65,3.049,3.36
			c0.749,1.05,0.082,3.25,0.082,3.25s-0.544-0.59-0.976-1.15c-0.934-1.189-2.083-2.55-3.449-4.09c-1.047,3.86-2.936,5.53-2.936,5.53
			c-0.76,0.74-3.624,1.32-4.199,0.76c3.531-2.66,5.472-5.979,5.831-9.96H8.116c0,0,0.308-1.89,1.283-1.89h4.301
			c0.041-0.53,0.082-1.15,0.082-2.48c0.072-1.4,0.062-2.56,0.062-3.39h-2.381c-0.216,0.62-0.247,0.69-0.421,1.16
			c-0.945,1.68-2.546,1.72-3.039,1.77c1.448-2.8,2.249-5.53,2.536-6.24c0.667-1.73,2.659-1.73,2.659-1.73
			c-0.441,1.12-0.801,2.2-1.088,3.25H19.398z"/>
	</g>
	<g>
	</g>
</g>
</svg>
